<mxfile host="app.diagrams.net" modified="2023-12-19T07:46:40.265Z" agent="Mozilla/5.0 (Windows NT 10.0; Win64; x64; rv:120.0) Gecko/20100101 Firefox/120.0" version="22.1.11" etag="BhsNZ9HMq48PGnBJKJ5J" type="github">
  <diagram name="Page-1" id="PBNg-U1uGAjVxUvBvl-R">
    <mxGraphModel>
      <root>
        <mxCell id="0" />
        <mxCell id="1" parent="0" />
      </root>
    </mxGraphModel>
  </diagram>
</mxfile>
